<?xml version="1.0" encoding="UTF-8"?>
<svg id="Calque_1" xmlns="http://www.w3.org/2000/svg" version="1.1" viewBox="0 0 430.18 406.68">
  <!-- Generator: Adobe Illustrator 29.7.1, SVG Export Plug-In . SVG Version: 2.1.1 Build 8)  -->
  <defs>
    <style>
      .st0 {
        fill: #972b63;
      }
    </style>
  </defs>
  <path d="M261.83,194.03c3.91-4.64,3.57-11.56,2.5-17.26-5.84-25.8-30.36-41.41-47.89-59.33-4.28-4.26-8.1-8.81-11.53-14.24-74.11-123.9,165.34-53.34,177.74,52.01,1.65,12.77-4.67,31.14-20.23,28.5-9.5-1.71-16.35-12.1-17.73-21.48-1.24-7.33-.57-14.34-1.38-21.9-.69-8.01-2.9-17.35-5.91-25.28-42.86-108.09-195.69-40.43-55.32,44.9,5.12,3.27,10.14,6.9,14.42,11.34,7.93,8.16,12.95,18.7,13.38,29.91,1.79,39.69-53.23,67.41-81.4,31.42-2.38-2.78-4.58-5.8-6.59-8.84-7.3-11.05-12.44-22.69-21.66-31.7-15.48-15.82-34.03-15.65-55.23-14.77-125.79,11.59-27.35,174.57,69.59,174.68,5.49-.15,10.84-1.16,15.36-3.18,7.65-3.42,12.53-9.46,13.5-16.98,1.12-7.39-2.56-16.13-7.14-22.4-2.94-4.31-6.62-8.23-8.43-13.15-3.43-8.85,3.44-18.09,11.32-21.76,43.79-18.65,47.57,75.88-3.37,91.42-30.98,9.54-61.98-2.84-89.06-18.89C-12.78,252.54,29.93,52.42,201.03,168.02c6.31,4.25,11.8,8.28,17.66,12.86,5.71,4.36,10.65,9.06,17.57,12.68,7.71,3.93,19.43,7.1,25.51.55l.07-.08Z"/>
  <path class="st0" d="M160.5,288.78l-26.16,14.29,15.69-25.35c3.82-6.17,3.48-14.04-.85-19.86l-29.09-44.73,42.54,31.99c5.58,4.64,13.42,5.41,19.79,1.93l26.16-14.29-15.69,25.35c-3.82,6.17-3.48,14.04.85,19.86l25.76,40.39-39.21-27.64c-5.58-4.64-13.42-5.41-19.79-1.93Z"/>
  <path class="st0" d="M168.59,126.91l-14.49,9.65,7.83-15.55c1.9-3.78,1.31-8.35-1.51-11.51l-19.21-24.53,26.39,16.42c3.48,2.41,8.08,2.46,11.61.11l14.49-9.65-7.83,15.55c-1.9,3.78-1.31,8.35,1.51,11.51l17.05,22.17-24.22-14.07c-3.48-2.41-8.08-2.46-11.61-.11Z"/>
</svg>
